<svg width="270" height="84" viewBox="0 0 270 84" fill="none" xmlns="http://www.w3.org/2000/svg">
<g clip-path="url(#clip0_734_420)">
<mask id="mask0_734_420" style="mask-type:luminance" maskUnits="userSpaceOnUse" x="0" y="0" width="270" height="84">
<path d="M270 0H0V84H270V0Z" fill="white"/>
</mask>
<g mask="url(#mask0_734_420)">
<path d="M8.27295 66.0625C11.8217 70.9987 16.3739 75.129 21.6309 78.1825C26.8879 81.2361 32.731 83.1439 38.777 83.781C35.6664 79.1001 31.1449 74.7936 25.5002 71.515C19.8555 68.2364 13.8777 66.4454 8.27295 66.0625Z" fill="url(#paint0_linear_734_420)"/>
<path d="M33.0854 58.4603C22.2103 52.1422 10.4397 50.5321 2.01746 53.3765C2.83052 56.0637 3.90281 58.6655 5.2192 61.1453C12.5367 60.9758 20.5261 62.9632 27.9603 67.2811C35.3945 71.599 41.0805 77.5583 44.5598 84.0002C47.3676 83.914 50.1605 83.5564 52.8995 82.9325C51.1968 74.2085 43.9576 64.7798 33.0854 58.4603Z" fill="url(#paint1_linear_734_420)"/>
<path d="M84.9086 32.8149C83.5259 27.1908 81.0241 21.9031 77.5525 17.2674C74.081 12.6316 69.7108 8.74301 64.7031 5.83368C59.6954 2.92434 54.1527 1.05395 48.4061 0.334187C42.6595 -0.385573 36.8268 0.0600586 31.2562 1.64447C40.5625 2.78338 50.8923 6.27696 61.0229 12.1622C71.1535 18.0475 79.3123 25.2895 84.9086 32.8149Z" fill="url(#paint2_linear_734_420)"/>
<path d="M71.3683 53.4408C66.6049 45.5297 58.4446 37.9546 48.3924 32.1148C38.3401 26.2751 27.7198 22.9396 18.4961 22.7189C10.3814 22.5267 4.29116 24.8857 1.79127 29.1893C1.77703 29.2149 1.7571 29.2391 1.74144 29.2647C1.5165 30.0719 1.32289 30.8806 1.14636 31.692C4.6371 30.314 8.68164 29.5466 13.1789 29.4612C23.1799 29.2733 34.3724 32.4722 44.7009 38.4728C55.0293 44.4734 63.359 52.6151 68.1481 61.3932C70.2949 65.3481 71.6345 69.2417 72.1656 72.9616C72.7834 72.4093 73.3899 71.8384 73.9778 71.2447C73.9935 71.2177 74.0035 71.1892 74.0191 71.1607C76.519 66.8528 75.5524 60.3953 71.3683 53.4408Z" fill="url(#paint3_linear_734_420)"/>
<path d="M40.7446 45.2773C25.3509 36.334 8.33997 34.9332 0.15979 41.1744C0.175858 43.1279 0.325209 45.0781 0.606808 47.0113C3.01313 46.2818 5.49318 45.8225 8.00114 45.6417C17.1423 44.9541 27.2201 47.501 36.3655 52.8168C45.5109 58.1327 52.7202 65.6295 56.6523 73.9051C57.7391 76.1722 58.5681 78.5541 59.1237 81.0061C60.943 80.2929 62.7119 79.4572 64.4182 78.5048C65.7877 68.3059 56.1426 54.2219 40.7446 45.2773Z" fill="url(#paint4_linear_734_420)"/>
<path d="M79.2862 40.1994C74.4686 32.2968 66.2372 24.7003 56.1138 18.8222C45.9903 12.944 35.3288 9.55579 26.0752 9.28388C19.0211 9.0803 13.5572 10.7901 10.7242 14.0203C22.4876 12.0272 38.0038 15.377 53.043 24.1138C68.0822 32.8506 78.6826 44.6724 82.7741 55.8778C84.1764 51.8191 82.9563 46.2256 79.2862 40.1994Z" fill="url(#paint5_linear_734_420)"/>
<path d="M122.654 26.0107H129.835V49.9713C129.835 52.1861 129.337 54.1101 128.342 55.7433C127.358 57.3765 125.987 58.6349 124.231 59.5186C122.475 60.4023 120.433 60.8442 118.107 60.8442C116.037 60.8442 114.158 60.4806 112.469 59.7535C110.791 59.0152 109.46 57.8966 108.475 56.3977C107.491 54.8876 107.004 52.9915 107.016 50.7096H114.247C114.27 51.6156 114.454 52.3931 114.801 53.0419C115.159 53.6795 115.646 54.1717 116.261 54.5184C116.887 54.854 117.626 55.0218 118.476 55.0218C119.371 55.0218 120.126 54.8316 120.741 54.4513C121.367 54.0598 121.843 53.4893 122.167 52.7398C122.492 51.9904 122.654 51.0675 122.654 49.9713V26.0107Z" fill="#171717"/>
<path d="M152.235 49.4008V34.6016H159.383V60.3743H152.521V55.693H152.252C151.67 57.2031 150.703 58.4168 149.349 59.334C148.007 60.2513 146.368 60.7099 144.433 60.7099C142.71 60.7099 141.195 60.3184 139.886 59.5354C138.577 58.7524 137.554 57.6393 136.815 56.1963C136.088 54.7533 135.719 53.0251 135.708 51.0116V34.6016H142.856V49.7364C142.867 51.2577 143.275 52.4602 144.081 53.3439C144.886 54.2276 145.966 54.6694 147.319 54.6694C148.18 54.6694 148.986 54.4737 149.735 54.0822C150.485 53.6795 151.089 53.0866 151.547 52.3036C152.017 51.5206 152.247 50.553 152.235 49.4008Z" fill="#171717"/>
<path d="M165.101 70.0397V34.6022H172.148V38.9312H172.467C172.78 38.2377 173.233 37.533 173.826 36.8171C174.43 36.09 175.213 35.4859 176.175 35.0049C177.148 34.5127 178.356 34.2666 179.799 34.2666C181.679 34.2666 183.412 34.7588 185.001 35.7432C186.589 36.7164 187.859 38.1874 188.81 40.1561C189.76 42.1137 190.236 44.569 190.236 47.5221C190.236 50.397 189.772 52.8243 188.843 54.8043C187.926 56.773 186.673 58.2664 185.085 59.2843C183.507 60.2911 181.74 60.7944 179.782 60.7944C178.395 60.7944 177.215 60.5651 176.242 60.1065C175.28 59.6479 174.491 59.0718 173.876 58.3782C173.261 57.6735 172.791 56.9632 172.467 56.2473H172.249V70.0397H165.101ZM172.098 47.4886C172.098 49.0211 172.31 50.3578 172.735 51.4988C173.16 52.6398 173.776 53.5291 174.581 54.1667C175.386 54.7931 176.365 55.1063 177.517 55.1063C178.681 55.1063 179.665 54.7875 180.47 54.1499C181.276 53.5011 181.885 52.6062 182.299 51.4652C182.724 50.3131 182.937 48.9875 182.937 47.4886C182.937 46.0008 182.73 44.6921 182.316 43.5623C181.902 42.4325 181.293 41.5488 180.487 40.9112C179.682 40.2736 178.692 39.9548 177.517 39.9548C176.354 39.9548 175.37 40.2624 174.564 40.8776C173.77 41.4928 173.16 42.3654 172.735 43.4952C172.31 44.6249 172.098 45.9561 172.098 47.4886Z" fill="#171717"/>
<path d="M195.001 60.3745V34.6019H202.149V60.3745H195.001ZM198.592 31.2797C197.529 31.2797 196.618 30.9273 195.857 30.2226C195.107 29.5067 194.733 28.6509 194.733 27.6554C194.733 26.671 195.107 25.8264 195.857 25.1217C196.618 24.4058 197.529 24.0479 198.592 24.0479C199.655 24.0479 200.561 24.4058 201.31 25.1217C202.071 25.8264 202.451 26.671 202.451 27.6554C202.451 28.6509 202.071 29.5067 201.31 30.2226C200.561 30.9273 199.655 31.2797 198.592 31.2797Z" fill="#171717"/>
<path d="M221.583 34.6015V39.9708H206.063V34.6015H221.583ZM209.586 28.4268H216.734V52.4545C216.734 53.1145 216.835 53.629 217.036 53.9982C217.238 54.3561 217.517 54.6078 217.875 54.7532C218.244 54.8987 218.669 54.9714 219.15 54.9714C219.486 54.9714 219.822 54.9434 220.157 54.8875C220.493 54.8204 220.75 54.77 220.929 54.7365L222.053 60.0554C221.695 60.1673 221.192 60.2959 220.543 60.4414C219.894 60.598 219.106 60.6931 218.177 60.7266C216.455 60.7937 214.945 60.5644 213.647 60.0387C212.361 59.5129 211.359 58.6963 210.643 57.5889C209.928 56.4815 209.575 55.0832 209.586 53.3941V28.4268Z" fill="#171717"/>
<path d="M237.708 60.8783C235.057 60.8783 232.775 60.3414 230.862 59.2675C228.961 58.1825 227.495 56.65 226.466 54.67C225.437 52.6789 224.922 50.3243 224.922 47.606C224.922 44.9549 225.437 42.6282 226.466 40.6259C227.495 38.6236 228.944 37.0632 230.812 35.9445C232.691 34.8259 234.895 34.2666 237.423 34.2666C239.123 34.2666 240.706 34.5407 242.171 35.0888C243.648 35.6257 244.934 36.4367 246.031 37.5218C247.138 38.6068 247.999 39.9715 248.615 41.6159C249.23 43.2491 249.537 45.1619 249.537 47.3544V49.3175H227.775V44.8878H242.809C242.809 43.8587 242.585 42.947 242.138 42.1528C241.69 41.3586 241.07 40.7378 240.275 40.2903C239.492 39.8317 238.581 39.6024 237.54 39.6024C236.455 39.6024 235.493 39.8541 234.654 40.3575C233.827 40.8496 233.178 41.5152 232.708 42.3542C232.238 43.1819 231.998 44.1048 231.987 45.1227V49.3343C231.987 50.6095 232.221 51.7113 232.691 52.6398C233.172 53.5682 233.849 54.2841 234.721 54.7875C235.594 55.2909 236.629 55.5426 237.826 55.5426C238.62 55.5426 239.347 55.4307 240.007 55.207C240.667 54.9833 241.232 54.6477 241.702 54.2002C242.171 53.7528 242.529 53.2047 242.775 52.5559L249.386 52.9921C249.051 54.5806 248.363 55.9676 247.323 57.1534C246.293 58.3279 244.962 59.2452 243.329 59.9051C241.707 60.5539 239.834 60.8783 237.708 60.8783Z" fill="#171717"/>
<path d="M254.202 60.3742V34.6015H261.132V39.0983H261.4C261.87 37.4987 262.659 36.2906 263.766 35.474C264.874 34.6463 266.149 34.2324 267.592 34.2324C267.95 34.2324 268.336 34.2548 268.75 34.2995C269.163 34.3442 269.527 34.4058 269.84 34.4841V40.8266C269.505 40.7259 269.04 40.6364 268.448 40.5581C267.855 40.4798 267.312 40.4407 266.82 40.4407C265.768 40.4407 264.829 40.67 264.001 41.1286C263.184 41.576 262.536 42.2025 262.055 43.0079C261.585 43.8133 261.35 44.7417 261.35 45.7932V60.3742H254.202Z" fill="#171717"/>
</g>
</g>
<defs>
<linearGradient id="paint0_linear_734_420" x1="56.5972" y1="17.0626" x2="17.6597" y2="84.0001" gradientUnits="userSpaceOnUse">
<stop offset="0.0001" stop-color="#A4D756"/>
<stop offset="1" stop-color="#00B6E7"/>
</linearGradient>
<linearGradient id="paint1_linear_734_420" x1="56.5974" y1="17.0627" x2="17.6599" y2="84.0002" gradientUnits="userSpaceOnUse">
<stop offset="0.0001" stop-color="#A4D756"/>
<stop offset="1" stop-color="#00B6E7"/>
</linearGradient>
<linearGradient id="paint2_linear_734_420" x1="56.5973" y1="17.0625" x2="17.6598" y2="84" gradientUnits="userSpaceOnUse">
<stop offset="0.0001" stop-color="#A4D756"/>
<stop offset="1" stop-color="#00B6E7"/>
</linearGradient>
<linearGradient id="paint3_linear_734_420" x1="56.5972" y1="17.0627" x2="17.6597" y2="84.0002" gradientUnits="userSpaceOnUse">
<stop offset="0.0001" stop-color="#A4D756"/>
<stop offset="1" stop-color="#00B6E7"/>
</linearGradient>
<linearGradient id="paint4_linear_734_420" x1="56.5973" y1="17.0624" x2="17.6598" y2="83.9999" gradientUnits="userSpaceOnUse">
<stop offset="0.0001" stop-color="#A4D756"/>
<stop offset="1" stop-color="#00B6E7"/>
</linearGradient>
<linearGradient id="paint5_linear_734_420" x1="56.5972" y1="17.0624" x2="17.6597" y2="83.9999" gradientUnits="userSpaceOnUse">
<stop offset="0.0001" stop-color="#A4D756"/>
<stop offset="1" stop-color="#00B6E7"/>
</linearGradient>
<clipPath id="clip0_734_420">
<rect width="270" height="84" fill="white"/>
</clipPath>
</defs>
</svg>
